<?xml version="1.0" encoding="utf-8"?>
<!-- Generator: Adobe Illustrator 23.0.3, SVG Export Plug-In . SVG Version: 6.00 Build 0)  -->
<svg version="1.1" id="Слой_1" xmlns="http://www.w3.org/2000/svg" xmlns:xlink="http://www.w3.org/1999/xlink" x="0px" y="0px"
	 viewBox="0 0 115 53" style="enable-background:new 0 0 115 53;" xml:space="preserve">
<style type="text/css">
	.st0{fill:#667780;}
</style>
<path class="st0" d="M111.6,21.1c0.4-0.2,0.7-0.6,0.7-1.1v-1.8c0-0.7-0.5-1.2-1.2-1.2h-0.7c-0.4-1-0.8-1.9-1.3-2.7
	c-2.1-3.7-5.3-6.3-9.7-7.9c-1.8-0.7-4.1-1.2-6.8-1.6V3H20.1v1.9c-2.4,0.4-4.4,0.9-6.1,1.5c-4.4,1.7-7.6,4.3-9.7,7.9
	c-0.5,0.8-0.9,1.7-1.3,2.7H2.1C1.5,17,1,17.5,1,18.2V20c0,0.6,0.4,1,0.9,1.2C0.7,26.6-1,40.8,10.3,46.9c6.3,3.4,17.5,4.4,24.7,0.3
	c7.4-4.2,12.7-15,14.9-22.9c1.1-2.6,4.3-3.7,7-3.7c0,0,0,0,0,0c2.4,0,5.3,0.9,6.5,3.5c0.1,0.3,0.2,0.6,0.3,1
	c2.5,7.7,7.8,18.2,14.7,22.1c3.3,1.9,7.4,2.7,11.5,2.7c4.9,0,9.8-1.2,13.2-3C114.6,40.8,112.7,26.5,111.6,21.1z M66.9,13.2
	c0.4-1.4,1.2-2.5,2.3-3.2c1.1-0.7,2.5-1.2,4.2-1.4c2.5-0.3,5.3-0.4,8.1-0.4c2,0,4.1,0.1,6,0.2c4.3,0.3,7.9,1,10.4,1.9
	c3.5,1.3,5.9,3.3,7.6,6.1v0c2.9,5.1,3.8,12.4,2.1,18.3c-1.1,4-3.3,6.9-6.4,8.6c-5.3,2.8-14.9,3.7-20.7,0.4
	c-7.4-4.2-13.2-17.8-13.9-25.3C66.3,16.3,66.5,14.6,66.9,13.2z M62.3,17.7c-3.4-1.6-7.8-1.6-11.1,0.1c0.1-1.7,0.1-3.7-0.6-5.8
	c-0.6-2-1.6-3.6-3.1-4.8H66c-1.4,1.2-2.5,2.8-3.1,4.8C62.4,13.7,62.1,15.6,62.3,17.7z M40.1,8.6c1.7,0.2,3.2,0.6,4.2,1.4
	c1.1,0.7,1.9,1.8,2.3,3.2c0.4,1.4,0.5,3.1,0.3,5.1c-0.8,7.5-6.6,21.1-14,25.3c-5.8,3.3-15.4,2.5-20.7-0.4c-3.1-1.6-5.3-4.6-6.4-8.6
	C4.2,28.8,5,21.5,8,16.4c1.6-2.8,4-4.8,7.6-6.1c2.5-0.9,6.1-1.6,10.4-1.9C30.5,8.1,35.8,8.1,40.1,8.6z"/>
</svg>
