<?xml version="1.0" encoding="utf-8"?>
<!-- Generator: Adobe Illustrator 23.0.3, SVG Export Plug-In . SVG Version: 6.00 Build 0)  -->
<svg version="1.1" id="Слой_1" xmlns="http://www.w3.org/2000/svg" xmlns:xlink="http://www.w3.org/1999/xlink" x="0px" y="0px"
	 viewBox="0 0 115 53" style="enable-background:new 0 0 115 53;" xml:space="preserve">
<style type="text/css">
	.st0{fill:#667780;}
</style>
<path class="st0" d="M111.7,5.6L111.7,5.6c-19.5-2.1-31.3,2-40.8,5.3c-5,1.7-9.3,3.2-13.5,3.2s-8.5-1.5-13.5-3.2
	C34.4,7.5,22.6,3.4,3.1,5.6L1,5.8l0.3,2.1C2.7,20.5,6.9,37,18.5,43.8c4.1,2.4,8.6,3.6,13.2,3.5c4.7-0.1,9-1.6,12.7-4.2
	c4-2.9,6.9-7.3,8.4-12.5c1.2-4.1,2.8-6.5,4.6-6.5c0,0,0,0,0,0c2.4,0,3.9,4.1,4.6,6.5c1.5,5.2,4.4,9.6,8.4,12.5
	c3.6,2.6,8,4.1,12.7,4.2c0.2,0,0.4,0,0.6,0c4.4,0,8.8-1.2,12.7-3.5C107.8,37,112,20.5,113.5,7.9l0.3-2.1L111.7,5.6z M83.1,43
	c-3.8-0.1-7.4-1.3-10.3-3.4c-3.3-2.4-5.6-5.9-6.8-10.2c-1.8-6.3-4.7-9.5-8.6-9.6c0,0,0,0,0,0c-3.9,0-6.9,3.3-8.6,9.6
	c-1.2,4.3-3.6,7.9-6.8,10.2c-2.9,2.1-6.5,3.3-10.3,3.4c-3.8,0.1-7.6-0.9-11-2.9C10.7,34.4,7.3,20.1,5.7,9.5
	c17.7-1.7,28.8,2.2,37.7,5.4c5.1,1.8,9.5,3.4,14,3.4c4.5,0,8.9-1.6,14-3.4c8.9-3.2,19.9-7.1,37.7-5.4c-1.6,10.6-5,24.8-14.9,30.6
	C90.7,42.1,86.9,43.1,83.1,43z"/>
</svg>
