<?xml version="1.0" encoding="utf-8"?>
<!-- Generator: Adobe Illustrator 23.0.3, SVG Export Plug-In . SVG Version: 6.00 Build 0)  -->
<svg version="1.1" id="Слой_1" xmlns="http://www.w3.org/2000/svg" xmlns:xlink="http://www.w3.org/1999/xlink" x="0px" y="0px"
	 viewBox="0 0 115 53" style="enable-background:new 0 0 115 53;" xml:space="preserve">
<style type="text/css">
	.st0{fill:#667780;}
</style>
<path class="st0" d="M87.5,1.6c-12,0-22,8.2-24.5,19.8c-1.7-1.5-3.9-2.3-6.3-2.3c-2.3,0-4.5,0.8-6.3,2.3C48,9.9,37.9,1.6,25.9,1.6
	c-13.8,0-25,11.2-25,25c0,13.8,11.2,25,25,25c13.1,0,24.1-10.2,25-23.3c0.4-2.8,3-5.1,5.8-5.1c2.9,0,5.4,2.2,5.8,5.1
	c0.9,13,11.9,23.3,25,23.3c13.8,0,25-11.2,25-25C112.5,12.9,101.3,1.6,87.5,1.6z M108.4,26.7c0,11.5-9.4,20.9-20.9,20.9
	c-11.5,0-20.9-9.4-20.9-20.9c0-11.5,9.4-20.9,20.9-20.9C99,5.8,108.4,15.2,108.4,26.7z M25.9,47.5c-11.5,0-20.9-9.4-20.9-20.9
	c0-11.5,9.4-20.9,20.9-20.9c11.5,0,20.9,9.4,20.9,20.9C46.8,38.2,37.4,47.5,25.9,47.5z"/>
</svg>
