<?xml version="1.0" encoding="utf-8"?>
<!-- Generator: Adobe Illustrator 23.0.3, SVG Export Plug-In . SVG Version: 6.00 Build 0)  -->
<svg version="1.1" id="Слой_1" xmlns="http://www.w3.org/2000/svg" xmlns:xlink="http://www.w3.org/1999/xlink" x="0px" y="0px"
	 viewBox="0 0 115 53" style="enable-background:new 0 0 115 53;" xml:space="preserve">
<style type="text/css">
	.st0{fill:#667780;}
</style>
<path class="st0" d="M110.9,9.2c-1.8-1.8-4.2-2.8-6.7-2.8H74c-2.5,0-4.9,1-6.7,2.8c-1.8,1.8-2.8,4.2-2.8,6.7v4.2
	c-2-1.6-4.6-2.4-7.3-2.4c-2.5,0.1-4.7,0.8-6.5,2.2c-0.1,0.1-0.2,0.1-0.2,0.2v-4.2c0-2.5-1-4.9-2.8-6.7c-1.8-1.8-4.2-2.8-6.7-2.8
	H10.8c-2.5,0-4.9,1-6.7,2.8c-1.8,1.8-2.8,4.2-2.8,6.7v21.7c0,2.5,1,4.9,2.8,6.7c1.8,1.8,4.2,2.8,6.7,2.8H41c2.5,0,4.9-1,6.7-2.8
	c1.8-1.8,2.8-4.2,2.8-6.7V27.4c0.7-1.9,1.7-3.3,2.8-4.1c1.1-0.8,2.4-1.3,4-1.3c1.8,0,3.4,0.5,4.7,1.5c1.2,1,2.1,2.4,2.5,4.3v9.9
	c0,2.5,1,4.9,2.8,6.7c1.8,1.8,4.2,2.8,6.7,2.8h30.2c2.5,0,4.9-1,6.7-2.8c1.8-1.8,2.8-4.2,2.8-6.7V15.9
	C113.7,13.4,112.7,11,110.9,9.2z M109.5,15.9v21.7c0,1.4-0.6,2.7-1.6,3.7c-1,1-2.3,1.6-3.7,1.6H74c-1.4,0-2.7-0.6-3.7-1.6
	c-1-1-1.6-2.3-1.6-3.7V15.9c0-1.4,0.6-2.7,1.6-3.7c1-1,2.3-1.6,3.7-1.6h30.2c1.4,0,2.7,0.6,3.7,1.6C109,13.2,109.5,14.5,109.5,15.9z
	 M10.8,10.6H41c1.4,0,2.7,0.6,3.7,1.6c1,1,1.6,2.3,1.6,3.7v21.7c0,1.4-0.6,2.7-1.6,3.7c-1,1-2.3,1.6-3.7,1.6H10.8
	c-1.4,0-2.7-0.6-3.7-1.6c-1-1-1.6-2.3-1.6-3.7V15.9c0-1.4,0.6-2.7,1.6-3.7C8,11.2,9.4,10.6,10.8,10.6z"/>
</svg>
