<?xml version="1.0" encoding="utf-8"?>
<!-- Generator: Adobe Illustrator 23.0.3, SVG Export Plug-In . SVG Version: 6.00 Build 0)  -->
<svg version="1.1" id="Слой_1" xmlns="http://www.w3.org/2000/svg" xmlns:xlink="http://www.w3.org/1999/xlink" x="0px" y="0px"
	 viewBox="0 0 115 53" style="enable-background:new 0 0 115 53;" xml:space="preserve">
<style type="text/css">
	.st0{fill:#667780;}
</style>
<path class="st0" d="M113.5,7.7c-0.2-0.8-0.6-1.4-1.2-2c-0.5-0.5-1.1-0.9-1.8-1.1c-0.9-0.3-1.9-0.3-2.8,0C67.6,16.8,47,16.8,7,4.5
	c-0.9-0.3-1.9-0.3-2.8,0C3.5,4.8,2.9,5.2,2.3,5.7c-0.5,0.5-0.9,1.2-1.2,2c-0.3,1.1-0.3,2.4,0.2,3.8l9.9,25.4c1,2.7,2.5,4.8,4.3,6.3
	c2.4,2,4.9,2.5,6.5,2.5l21.8,0.4c0.1,0,0.1,0,0.2,0c6.5,0,8.9-7.1,10.9-12.8v0l0.2-0.5c1.3-4.2,2.1-5.2,2.4-5.4
	c0.3,0.2,1,1.2,2.3,5.4l0.2,0.5c1.9,5.7,4.3,12.8,10.9,12.8c0.1,0,0.1,0,0.2,0l21.8-0.4c1.6,0,4.1-0.5,6.5-2.5
	c1.8-1.5,3.2-3.6,4.3-6.3l9.9-25.5C113.8,10.1,113.8,8.8,113.5,7.7z M63.8,32.1c-1.2-3.6-2.3-6.7-4.3-8.2c-0.7-0.4-1.4-0.7-2.2-0.7
	c0,0,0,0,0,0c-0.7,0-1.4,0.2-2.1,0.7c-2.1,1.4-3.1,4.5-4.3,8.2c-1.6,4.7-3.4,9.9-6.9,9.9c0,0,0,0-0.1,0l-21.8-0.4
	c-1,0-2.4-0.3-3.9-1.5c-1.2-1.1-2.3-2.6-3.1-4.6L5.3,10.1c-0.2-0.6-0.2-1-0.1-1.1c0-0.1,0.1-0.2,0.1-0.2c0.1-0.1,0.1-0.1,0.2-0.1
	c0,0,0.1,0,0.1,0c0,0,0.1,0,0.1,0c41,12.6,62.2,12.6,103.1,0c0.1,0,0.2,0,0.3,0c0.1,0,0.1,0.1,0.2,0.1c0.1,0.1,0.1,0.1,0.1,0.2
	c0.1,0.2,0.1,0.6-0.1,1.1l-9.9,25.4c-0.8,2-1.8,3.6-3.1,4.6c-1.5,1.2-2.9,1.5-3.9,1.5L70.8,42C67.2,42,65.4,36.8,63.8,32.1z"/>
</svg>
