<?xml version="1.0" encoding="utf-8"?>
<!-- Generator: Adobe Illustrator 23.0.3, SVG Export Plug-In . SVG Version: 6.00 Build 0)  -->
<svg version="1.1" id="Слой_1" xmlns="http://www.w3.org/2000/svg" xmlns:xlink="http://www.w3.org/1999/xlink" x="0px" y="0px"
	 viewBox="0 0 115 53" style="enable-background:new 0 0 115 53;" xml:space="preserve">
<style type="text/css">
	.st0{fill:#667780;}
</style>
<path class="st0" d="M105.9,16c-4.7-2.8-11-4.4-17.5-4.4c-6.6,0-12.8,1.6-17.5,4.4c-2.5,1.5-4.5,3.3-5.8,5.3c-1.9-1.8-4.6-2.9-7.4-3
	c-3-0.1-5.9,0.9-8.1,2.7c-1.3-1.9-3.2-3.5-5.6-5c-4.7-2.8-11-4.4-17.5-4.4c-6.6,0-12.8,1.6-17.5,4.4c-5.1,3-7.8,7.2-7.8,11.7
	s2.8,8.7,7.8,11.7c4.7,2.8,11,4.4,17.5,4.4c6.6,0,12.8-1.6,17.5-4.4c5.1-3,7.8-7.2,7.8-11.7c0-0.9-0.1-1.8-0.3-2.7
	c1.4-1.7,3.8-2.7,6.3-2.5c2.4,0.2,4.4,1.3,5.5,3.2c-0.1,0.7-0.2,1.4-0.2,2c0,4.5,2.8,8.7,7.8,11.7c4.7,2.8,11,4.4,17.5,4.4
	c6.6,0,12.8-1.6,17.5-4.4c5.1-3,7.8-7.2,7.8-11.7S110.9,19,105.9,16z M109.5,27.7c0,3-2.1,5.8-5.8,8.1c-4.1,2.4-9.5,3.8-15.4,3.8
	c-5.8,0-11.3-1.3-15.4-3.8c-3.7-2.2-5.8-5.1-5.8-8.1s2.1-5.8,5.8-8.1c4.1-2.4,9.5-3.8,15.4-3.8c5.8,0,11.3,1.3,15.4,3.8
	C107.4,21.8,109.5,24.7,109.5,27.7z M47.5,27.7c0,3-2.1,5.8-5.8,8.1c-4.1,2.4-9.5,3.8-15.4,3.8c-5.8,0-11.3-1.3-15.4-3.8
	c-3.7-2.2-5.8-5.1-5.8-8.1s2.1-5.8,5.8-8.1c4.1-2.4,9.5-3.8,15.4-3.8c5.9,0,11.3,1.3,15.4,3.8C43.9,20.9,47.5,23.7,47.5,27.7z"/>
</svg>
