<?xml version="1.0" encoding="utf-8"?>
<!-- Generator: Adobe Illustrator 23.0.3, SVG Export Plug-In . SVG Version: 6.00 Build 0)  -->
<svg version="1.1" id="Слой_1" xmlns="http://www.w3.org/2000/svg" xmlns:xlink="http://www.w3.org/1999/xlink" x="0px" y="0px"
	 viewBox="0 0 115 53" style="enable-background:new 0 0 115 53;" xml:space="preserve">
<style type="text/css">
	.st0{fill:#667780;}
</style>
<path class="st0" d="M111.6,14.8c-1.3-1.4-3.1-2.1-5-2.1H70.5c-1.9,0-3.7,0.7-5,2.1c-1.3,1.3-2.1,3.1-2.1,5v0.4
	c-0.3-0.2-0.7-0.4-1.1-0.6c-1.4-0.7-3-1-4.6-1.1c-1.6,0-3.2,0.3-4.6,0.9c-0.5,0.2-1,0.5-1.4,0.7v-0.4c0-1.9-0.7-3.7-2.1-5
	c-1.4-1.4-3.1-2.1-5-2.1H8.4c-1.9,0-3.7,0.7-5,2.1c-1.3,1.3-2.1,3.1-2.1,5v12.9c0,1.9,0.7,3.7,2.1,5c1.3,1.4,3.1,2.1,5,2.1h36.1
	c1.9,0,3.7-0.7,5-2.1c1.3-1.3,2.1-3.1,2.1-5v-6.6c0.6-1.3,1.7-2.3,3.1-2.9c0.9-0.4,1.9-0.6,2.9-0.6c1,0,2,0.2,2.8,0.7
	c1.3,0.6,2.3,1.6,2.9,2.9v6.5c0,1.9,0.7,3.7,2.1,5c1.3,1.3,3.1,2.1,5,2.1h36.1c1.9,0,3.7-0.7,5-2.1c1.3-1.3,2.1-3.1,2.1-5V19.8
	C113.7,17.9,113,16.2,111.6,14.8z M109.5,19.8v12.9c0,0.8-0.3,1.5-0.9,2.1c-0.6,0.6-1.3,0.9-2.1,0.9H70.5c-0.8,0-1.5-0.3-2.1-0.9
	c-0.6-0.6-0.9-1.3-0.9-2.1V19.8c0-0.8,0.3-1.5,0.9-2.1c0.6-0.6,1.3-0.9,2.1-0.9h36.1c0.8,0,1.5,0.3,2.1,0.9
	C109.2,18.3,109.5,19.1,109.5,19.8z M47.5,19.8v12.9c0,0.8-0.3,1.5-0.9,2.1c-0.5,0.5-1.3,0.9-2.1,0.9H8.4c-0.8,0-1.5-0.3-2.1-0.9
	c-0.6-0.6-0.9-1.3-0.9-2.1V19.8c0-0.8,0.3-1.5,0.9-2.1c0.6-0.6,1.3-0.9,2.1-0.9h36.1c0.8,0,1.5,0.3,2.1,0.9
	C47.2,18.3,47.5,19.1,47.5,19.8z"/>
</svg>
