<?xml version="1.0" encoding="utf-8"?>
<!-- Generator: Adobe Illustrator 25.3.1, SVG Export Plug-In . SVG Version: 6.00 Build 0)  -->
<svg version="1.1" id="Слой_1" xmlns="http://www.w3.org/2000/svg" xmlns:xlink="http://www.w3.org/1999/xlink" x="0px" y="0px"
	 viewBox="0 0 115 53" style="enable-background:new 0 0 115 53;" xml:space="preserve">
<style type="text/css">
	.st0{fill:#667780;}
</style>
<path class="st0" d="M57.5,19.1c2.4-0.1,4.3,0.4,5.3,3.4c1.4,4.3,2.5,25.1,23.6,25.1s23-21.4,23.5-25c0.5-2.2,2-2.7,3.1-2.8
	c0.6,0,1.1-0.6,1.1-1.2V9.8c0-0.6-0.4-1.1-1-1.3c-1.5-0.5-5.3-1.3-15-2.6c-15.5-2-28.2,2.8-32.5,4.2c-2.7,0.9-6,0.9-8.1,0.8
	C55.4,11,52,11,49.4,10.1C45,8.7,32.3,3.9,16.8,5.9C7.1,7.2,3.3,8,1.8,8.5c-0.6,0.2-1,0.7-1,1.3v8.7c0,0.6,0.5,1.2,1.1,1.2
	c1.1,0.1,2.6,0.6,3.1,2.8c0.5,3.6,2.4,25,23.5,25c21.1,0,22.2-20.8,23.6-25.1C53.2,19.5,55.1,18.9,57.5,19.1z M105.5,23.6
	c-0.3,13.5-7.1,19.4-17.6,20.8c-10.4,1.4-21.1-8.5-19.6-22.3C69.8,8.3,87.9,9.7,87.9,9.7C91.5,9.7,105.9,10.8,105.5,23.6z M27.1,9.7
	c0,0,18.1-1.5,19.6,12.4s-9.1,23.7-19.6,22.3C16.6,43,9.8,37.1,9.5,23.6C9.1,10.8,23.5,9.7,27.1,9.7z"/>
</svg>
